<?xml version="1.0" encoding="UTF-8" standalone="no"?>
<svg
   xmlns:dc="http://purl.org/dc/elements/1.1/"
   xmlns:cc="http://creativecommons.org/ns#"
   xmlns:rdf="http://www.w3.org/1999/02/22-rdf-syntax-ns#"
   xmlns:svg="http://www.w3.org/2000/svg"
   xmlns="http://www.w3.org/2000/svg"
   xmlns:sodipodi="http://sodipodi.sourceforge.net/DTD/sodipodi-0.dtd"
   xmlns:inkscape="http://www.inkscape.org/namespaces/inkscape"
   width="38.364376mm"
   height="43.733944mm"
   viewBox="0 0 38.364377 43.733944"
   version="1.1"
   id="svg1741"
   inkscape:version="1.0.2-2 (e86c870879, 2021-01-15)"
   sodipodi:docname="logo.svg">
  <defs
     id="defs1735">
    <marker
       style="overflow:visible"
       id="marker6807"
       refX="0"
       refY="0"
       orient="auto"
       inkscape:stockid="Arrow1Lend"
       inkscape:isstock="true">
      <path
         transform="matrix(-0.8,0,0,-0.8,-10,0)"
         style="fill:#ff0000;fill-opacity:1;fill-rule:evenodd;stroke:#ff0000;stroke-width:1pt;stroke-opacity:1"
         d="M 0,0 5,-5 -12.5,0 5,5 Z"
         id="path6805" />
    </marker>
    <marker
       style="overflow:visible"
       id="marker3617"
       refX="0"
       refY="0"
       orient="auto"
       inkscape:stockid="Arrow1Lend"
       inkscape:isstock="true">
      <path
         transform="matrix(-0.8,0,0,-0.8,-10,0)"
         style="fill:#ff0000;fill-opacity:1;fill-rule:evenodd;stroke:#ff0000;stroke-width:1pt;stroke-opacity:1"
         d="M 0,0 5,-5 -12.5,0 5,5 Z"
         id="path3615" />
    </marker>
    <marker
       style="overflow:visible"
       id="marker3024"
       refX="0"
       refY="0"
       orient="auto"
       inkscape:stockid="Arrow1Lend"
       inkscape:isstock="true"
       inkscape:collect="always">
      <path
         transform="matrix(-0.8,0,0,-0.8,-10,0)"
         style="fill:#cb3c33;fill-opacity:1;fill-rule:evenodd;stroke:#cb3c33;stroke-width:1pt;stroke-opacity:1"
         d="M 0,0 5,-5 -12.5,0 5,5 Z"
         id="path3022" />
    </marker>
    <rect
       x="48.947918"
       y="125.67708"
       width="1.3229167"
       height="14.552083"
       id="rect2864" />
    <marker
       style="overflow:visible"
       id="Arrow1Lstart"
       refX="0"
       refY="0"
       orient="auto"
       inkscape:stockid="Arrow1Lstart"
       inkscape:isstock="true">
      <path
         transform="matrix(0.8,0,0,0.8,10,0)"
         style="fill:#000000;fill-opacity:1;fill-rule:evenodd;stroke:#000000;stroke-width:1pt;stroke-opacity:1"
         d="M 0,0 5,-5 -12.5,0 5,5 Z"
         id="path918" />
    </marker>
    <marker
       style="overflow:visible"
       id="Arrow1Lend-9"
       refX="0"
       refY="0"
       orient="auto"
       inkscape:stockid="Arrow1Lend"
       inkscape:isstock="true">
      <path
         transform="matrix(-0.8,0,0,-0.8,-10,0)"
         style="fill:#000000;fill-opacity:1;fill-rule:evenodd;stroke:#000000;stroke-width:1pt;stroke-opacity:1"
         d="M 0,0 5,-5 -12.5,0 5,5 Z"
         id="path921-9" />
    </marker>
    <marker
       style="overflow:visible"
       id="Arrow1Lend-9-0"
       refX="0"
       refY="0"
       orient="auto"
       inkscape:stockid="Arrow1Lend"
       inkscape:isstock="true">
      <path
         transform="matrix(-0.8,0,0,-0.8,-10,0)"
         style="fill:#000000;fill-opacity:1;fill-rule:evenodd;stroke:#000000;stroke-width:1pt;stroke-opacity:1"
         d="M 0,0 5,-5 -12.5,0 5,5 Z"
         id="path921-9-8" />
    </marker>
    <marker
       style="overflow:visible"
       id="Arrow1Lend-4"
       refX="0"
       refY="0"
       orient="auto"
       inkscape:stockid="Arrow1Lend"
       inkscape:isstock="true">
      <path
         transform="matrix(-0.8,0,0,-0.8,-10,0)"
         style="fill:#000000;fill-opacity:1;fill-rule:evenodd;stroke:#000000;stroke-width:1pt;stroke-opacity:1"
         d="M 0,0 5,-5 -12.5,0 5,5 Z"
         id="path921-5" />
    </marker>
    <marker
       style="overflow:visible"
       id="Arrow1Lend-9-4"
       refX="0"
       refY="0"
       orient="auto"
       inkscape:stockid="Arrow1Lend"
       inkscape:isstock="true">
      <path
         transform="matrix(-0.8,0,0,-0.8,-10,0)"
         style="fill:#000000;fill-opacity:1;fill-rule:evenodd;stroke:#000000;stroke-width:1pt;stroke-opacity:1"
         d="M 0,0 5,-5 -12.5,0 5,5 Z"
         id="path921-9-5" />
    </marker>
    <marker
       style="overflow:visible"
       id="Arrow1Lend-9-0-8"
       refX="0"
       refY="0"
       orient="auto"
       inkscape:stockid="Arrow1Lend"
       inkscape:isstock="true">
      <path
         transform="matrix(-0.8,0,0,-0.8,-10,0)"
         style="fill:#000000;fill-opacity:1;fill-rule:evenodd;stroke:#000000;stroke-width:1pt;stroke-opacity:1"
         d="M 0,0 5,-5 -12.5,0 5,5 Z"
         id="path921-9-8-7" />
    </marker>
    <marker
       style="overflow:visible"
       id="Arrow1Lend-2"
       refX="0"
       refY="0"
       orient="auto"
       inkscape:stockid="Arrow1Lend"
       inkscape:isstock="true">
      <path
         transform="matrix(-0.8,0,0,-0.8,-10,0)"
         style="fill:#000000;fill-opacity:1;fill-rule:evenodd;stroke:#000000;stroke-width:1pt;stroke-opacity:1"
         d="M 0,0 5,-5 -12.5,0 5,5 Z"
         id="path921-52" />
    </marker>
    <marker
       style="overflow:visible"
       id="marker3024-2"
       refX="0"
       refY="0"
       orient="auto"
       inkscape:stockid="Arrow1Lend"
       inkscape:isstock="true">
      <path
         transform="matrix(-0.8,0,0,-0.8,-10,0)"
         style="fill:#cb3c33;fill-opacity:1;fill-rule:evenodd;stroke:#cb3c33;stroke-width:1pt;stroke-opacity:1"
         d="M 0,0 5,-5 -12.5,0 5,5 Z"
         id="path3022-5" />
    </marker>
    <marker
       style="overflow:visible"
       id="marker3024-2-5"
       refX="0"
       refY="0"
       orient="auto"
       inkscape:stockid="Arrow1Lend"
       inkscape:isstock="true">
      <path
         transform="matrix(-0.8,0,0,-0.8,-10,0)"
         style="fill:#cb3c33;fill-opacity:1;fill-rule:evenodd;stroke:#cb3c33;stroke-width:1pt;stroke-opacity:1"
         d="M 0,0 5,-5 -12.5,0 5,5 Z"
         id="path3022-5-6" />
    </marker>
    <marker
       style="overflow:visible"
       id="marker3024-2-3"
       refX="0"
       refY="0"
       orient="auto"
       inkscape:stockid="Arrow1Lend"
       inkscape:isstock="true">
      <path
         transform="matrix(-0.8,0,0,-0.8,-10,0)"
         style="fill:#ff0000;fill-opacity:1;fill-rule:evenodd;stroke:#ff0000;stroke-width:1pt;stroke-opacity:1"
         d="M 0,0 5,-5 -12.5,0 5,5 Z"
         id="path3022-5-2" />
    </marker>
    <marker
       style="overflow:visible"
       id="marker3617-7"
       refX="0"
       refY="0"
       orient="auto"
       inkscape:stockid="Arrow1Lend"
       inkscape:isstock="true">
      <path
         transform="matrix(-0.8,0,0,-0.8,-10,0)"
         style="fill:#000000;fill-opacity:1;fill-rule:evenodd;stroke:#000000;stroke-width:1pt;stroke-opacity:1"
         d="M 0,0 5,-5 -12.5,0 5,5 Z"
         id="path3615-7" />
    </marker>
    <marker
       style="overflow:visible"
       id="marker3617-1"
       refX="0"
       refY="0"
       orient="auto"
       inkscape:stockid="Arrow1Lend"
       inkscape:isstock="true">
      <path
         transform="matrix(-0.8,0,0,-0.8,-10,0)"
         style="fill:#000000;fill-opacity:1;fill-rule:evenodd;stroke:#000000;stroke-width:1pt;stroke-opacity:1"
         d="M 0,0 5,-5 -12.5,0 5,5 Z"
         id="path3615-9" />
    </marker>
    <marker
       style="overflow:visible"
       id="marker3617-1-9"
       refX="0"
       refY="0"
       orient="auto"
       inkscape:stockid="Arrow1Lend"
       inkscape:isstock="true">
      <path
         transform="matrix(-0.8,0,0,-0.8,-10,0)"
         style="fill:#000000;fill-opacity:1;fill-rule:evenodd;stroke:#000000;stroke-width:1pt;stroke-opacity:1"
         d="M 0,0 5,-5 -12.5,0 5,5 Z"
         id="path3615-9-9" />
    </marker>
    <marker
       style="overflow:visible"
       id="marker3024-2-3-5"
       refX="0"
       refY="0"
       orient="auto"
       inkscape:stockid="Arrow1Lend"
       inkscape:isstock="true">
      <path
         transform="matrix(-0.8,0,0,-0.8,-10,0)"
         style="fill:#000000;fill-opacity:1;fill-rule:evenodd;stroke:#000000;stroke-width:1pt;stroke-opacity:1"
         d="M 0,0 5,-5 -12.5,0 5,5 Z"
         id="path3022-5-2-9" />
    </marker>
    <marker
       style="overflow:visible"
       id="marker3024-29"
       refX="0"
       refY="0"
       orient="auto"
       inkscape:stockid="Arrow1Lend"
       inkscape:isstock="true"
       inkscape:collect="always">
      <path
         transform="matrix(-0.8,0,0,-0.8,-10,0)"
         style="fill:#9558b2;fill-opacity:1;fill-rule:evenodd;stroke:#9558b2;stroke-width:1pt;stroke-opacity:1"
         d="M 0,0 5,-5 -12.5,0 5,5 Z"
         id="path3022-1" />
    </marker>
    <marker
       style="overflow:visible"
       id="marker3024-2-2"
       refX="0"
       refY="0"
       orient="auto"
       inkscape:stockid="Arrow1Lend"
       inkscape:isstock="true">
      <path
         transform="matrix(-0.8,0,0,-0.8,-10,0)"
         style="fill:#9558b2;fill-opacity:1;fill-rule:evenodd;stroke:#9558b2;stroke-width:1pt;stroke-opacity:1"
         d="M 0,0 5,-5 -12.5,0 5,5 Z"
         id="path3022-5-3" />
    </marker>
    <marker
       style="overflow:visible"
       id="marker3024-9"
       refX="0"
       refY="0"
       orient="auto"
       inkscape:stockid="Arrow1Lend"
       inkscape:isstock="true"
       inkscape:collect="always">
      <path
         transform="matrix(-0.8,0,0,-0.8,-10,0)"
         style="fill:#9558b2;fill-opacity:1;fill-rule:evenodd;stroke:#9558b2;stroke-width:1pt;stroke-opacity:1"
         d="M 0,0 5,-5 -12.5,0 5,5 Z"
         id="path3022-2" />
    </marker>
    <marker
       style="overflow:visible"
       id="marker3024-2-3-5-7"
       refX="0"
       refY="0"
       orient="auto"
       inkscape:stockid="Arrow1Lend"
       inkscape:isstock="true">
      <path
         transform="matrix(-0.8,0,0,-0.8,-10,0)"
         style="fill:#4063d8;fill-opacity:1;fill-rule:evenodd;stroke:#4063d8;stroke-width:1pt;stroke-opacity:1"
         d="M 0,0 5,-5 -12.5,0 5,5 Z"
         id="path3022-5-2-9-4" />
    </marker>
    <marker
       style="overflow:visible"
       id="marker3024-2-3-9"
       refX="0"
       refY="0"
       orient="auto"
       inkscape:stockid="Arrow1Lend"
       inkscape:isstock="true">
      <path
         transform="matrix(-0.8,0,0,-0.8,-10,0)"
         style="fill:#000000;fill-opacity:1;fill-rule:evenodd;stroke:#000000;stroke-width:1pt;stroke-opacity:1"
         d="M 0,0 5,-5 -12.5,0 5,5 Z"
         id="path3022-5-2-0" />
    </marker>
    <marker
       style="overflow:visible"
       id="marker3024-2-3-5-4"
       refX="0"
       refY="0"
       orient="auto"
       inkscape:stockid="Arrow1Lend"
       inkscape:isstock="true">
      <path
         transform="matrix(-0.8,0,0,-0.8,-10,0)"
         style="fill:#000000;fill-opacity:1;fill-rule:evenodd;stroke:#000000;stroke-width:1pt;stroke-opacity:1"
         d="M 0,0 5,-5 -12.5,0 5,5 Z"
         id="path3022-5-2-9-7" />
    </marker>
    <marker
       style="overflow:visible"
       id="marker3024-2-3-5-7-0"
       refX="0"
       refY="0"
       orient="auto"
       inkscape:stockid="Arrow1Lend"
       inkscape:isstock="true">
      <path
         transform="matrix(-0.8,0,0,-0.8,-10,0)"
         style="fill:#000000;fill-opacity:1;fill-rule:evenodd;stroke:#000000;stroke-width:1pt;stroke-opacity:1"
         d="M 0,0 5,-5 -12.5,0 5,5 Z"
         id="path3022-5-2-9-4-2" />
    </marker>
    <marker
       style="overflow:visible"
       id="marker3024-29-1"
       refX="0"
       refY="0"
       orient="auto"
       inkscape:stockid="Arrow1Lend"
       inkscape:isstock="true"
       inkscape:collect="always">
      <path
         transform="matrix(-0.8,0,0,-0.8,-10,0)"
         style="fill:#389826;fill-opacity:1;fill-rule:evenodd;stroke:#389826;stroke-width:1pt;stroke-opacity:1"
         d="M 0,0 5,-5 -12.5,0 5,5 Z"
         id="path3022-1-8" />
    </marker>
    <marker
       style="overflow:visible"
       id="marker3024-2-2-8"
       refX="0"
       refY="0"
       orient="auto"
       inkscape:stockid="Arrow1Lend"
       inkscape:isstock="true">
      <path
         transform="matrix(-0.8,0,0,-0.8,-10,0)"
         style="fill:#000000;fill-opacity:1;fill-rule:evenodd;stroke:#000000;stroke-width:1pt;stroke-opacity:1"
         d="M 0,0 5,-5 -12.5,0 5,5 Z"
         id="path3022-5-3-6" />
    </marker>
    <marker
       style="overflow:visible"
       id="marker3024-2-2-3"
       refX="0"
       refY="0"
       orient="auto"
       inkscape:stockid="Arrow1Lend"
       inkscape:isstock="true">
      <path
         transform="matrix(-0.8,0,0,-0.8,-10,0)"
         style="fill:#000000;fill-opacity:1;fill-rule:evenodd;stroke:#000000;stroke-width:1pt;stroke-opacity:1"
         d="M 0,0 5,-5 -12.5,0 5,5 Z"
         id="path3022-5-3-9" />
    </marker>
    <marker
       style="overflow:visible"
       id="Arrow1Lend-9-2"
       refX="0"
       refY="0"
       orient="auto"
       inkscape:stockid="Arrow1Lend"
       inkscape:isstock="true">
      <path
         transform="matrix(-0.8,0,0,-0.8,-10,0)"
         style="fill:#000000;fill-opacity:1;fill-rule:evenodd;stroke:#000000;stroke-width:1pt;stroke-opacity:1"
         d="M 0,0 5,-5 -12.5,0 5,5 Z"
         id="path921-9-9" />
    </marker>
    <marker
       style="overflow:visible"
       id="Arrow1Lend-9-0-7"
       refX="0"
       refY="0"
       orient="auto"
       inkscape:stockid="Arrow1Lend"
       inkscape:isstock="true">
      <path
         transform="matrix(-0.8,0,0,-0.8,-10,0)"
         style="fill:#000000;fill-opacity:1;fill-rule:evenodd;stroke:#000000;stroke-width:1pt;stroke-opacity:1"
         d="M 0,0 5,-5 -12.5,0 5,5 Z"
         id="path921-9-8-3" />
    </marker>
    <marker
       style="overflow:visible"
       id="Arrow1Lend-4-4"
       refX="0"
       refY="0"
       orient="auto"
       inkscape:stockid="Arrow1Lend"
       inkscape:isstock="true">
      <path
         transform="matrix(-0.8,0,0,-0.8,-10,0)"
         style="fill:#000000;fill-opacity:1;fill-rule:evenodd;stroke:#000000;stroke-width:1pt;stroke-opacity:1"
         d="M 0,0 5,-5 -12.5,0 5,5 Z"
         id="path921-5-6" />
    </marker>
    <marker
       style="overflow:visible"
       id="Arrow1Lend-9-4-7"
       refX="0"
       refY="0"
       orient="auto"
       inkscape:stockid="Arrow1Lend"
       inkscape:isstock="true">
      <path
         transform="matrix(-0.8,0,0,-0.8,-10,0)"
         style="fill:#000000;fill-opacity:1;fill-rule:evenodd;stroke:#000000;stroke-width:1pt;stroke-opacity:1"
         d="M 0,0 5,-5 -12.5,0 5,5 Z"
         id="path921-9-5-7" />
    </marker>
    <marker
       style="overflow:visible"
       id="Arrow1Lend-9-0-8-8"
       refX="0"
       refY="0"
       orient="auto"
       inkscape:stockid="Arrow1Lend"
       inkscape:isstock="true">
      <path
         transform="matrix(-0.8,0,0,-0.8,-10,0)"
         style="fill:#000000;fill-opacity:1;fill-rule:evenodd;stroke:#000000;stroke-width:1pt;stroke-opacity:1"
         d="M 0,0 5,-5 -12.5,0 5,5 Z"
         id="path921-9-8-7-8" />
    </marker>
    <marker
       style="overflow:visible"
       id="marker3024-2-25"
       refX="0"
       refY="0"
       orient="auto"
       inkscape:stockid="Arrow1Lend"
       inkscape:isstock="true">
      <path
         transform="matrix(-0.8,0,0,-0.8,-10,0)"
         style="fill:#000000;fill-opacity:1;fill-rule:evenodd;stroke:#000000;stroke-width:1pt;stroke-opacity:1"
         d="M 0,0 5,-5 -12.5,0 5,5 Z"
         id="path3022-5-7" />
    </marker>
    <marker
       style="overflow:visible"
       id="marker3024-2-5-6"
       refX="0"
       refY="0"
       orient="auto"
       inkscape:stockid="Arrow1Lend"
       inkscape:isstock="true">
      <path
         transform="matrix(-0.8,0,0,-0.8,-10,0)"
         style="fill:#000000;fill-opacity:1;fill-rule:evenodd;stroke:#000000;stroke-width:1pt;stroke-opacity:1"
         d="M 0,0 5,-5 -12.5,0 5,5 Z"
         id="path3022-5-6-9" />
    </marker>
    <marker
       style="overflow:visible"
       id="marker3024-2-3-8"
       refX="0"
       refY="0"
       orient="auto"
       inkscape:stockid="Arrow1Lend"
       inkscape:isstock="true">
      <path
         transform="matrix(-0.8,0,0,-0.8,-10,0)"
         style="fill:#000000;fill-opacity:1;fill-rule:evenodd;stroke:#000000;stroke-width:1pt;stroke-opacity:1"
         d="M 0,0 5,-5 -12.5,0 5,5 Z"
         id="path3022-5-2-1" />
    </marker>
    <marker
       style="overflow:visible"
       id="marker3024-2-3-5-3"
       refX="0"
       refY="0"
       orient="auto"
       inkscape:stockid="Arrow1Lend"
       inkscape:isstock="true">
      <path
         transform="matrix(-0.8,0,0,-0.8,-10,0)"
         style="fill:#000000;fill-opacity:1;fill-rule:evenodd;stroke:#000000;stroke-width:1pt;stroke-opacity:1"
         d="M 0,0 5,-5 -12.5,0 5,5 Z"
         id="path3022-5-2-9-6" />
    </marker>
    <marker
       style="overflow:visible"
       id="marker3024-2-2-2"
       refX="0"
       refY="0"
       orient="auto"
       inkscape:stockid="Arrow1Lend"
       inkscape:isstock="true">
      <path
         transform="matrix(-0.8,0,0,-0.8,-10,0)"
         style="fill:#000000;fill-opacity:1;fill-rule:evenodd;stroke:#000000;stroke-width:1pt;stroke-opacity:1"
         d="M 0,0 5,-5 -12.5,0 5,5 Z"
         id="path3022-5-3-2" />
    </marker>
    <marker
       style="overflow:visible"
       id="marker3024-2-3-5-7-04"
       refX="0"
       refY="0"
       orient="auto"
       inkscape:stockid="Arrow1Lend"
       inkscape:isstock="true">
      <path
         transform="matrix(-0.8,0,0,-0.8,-10,0)"
         style="fill:#000000;fill-opacity:1;fill-rule:evenodd;stroke:#000000;stroke-width:1pt;stroke-opacity:1"
         d="M 0,0 5,-5 -12.5,0 5,5 Z"
         id="path3022-5-2-9-4-5" />
    </marker>
    <marker
       style="overflow:visible"
       id="marker3024-2-3-9-7"
       refX="0"
       refY="0"
       orient="auto"
       inkscape:stockid="Arrow1Lend"
       inkscape:isstock="true">
      <path
         transform="matrix(-0.8,0,0,-0.8,-10,0)"
         style="fill:#000000;fill-opacity:1;fill-rule:evenodd;stroke:#000000;stroke-width:1pt;stroke-opacity:1"
         d="M 0,0 5,-5 -12.5,0 5,5 Z"
         id="path3022-5-2-0-5" />
    </marker>
    <marker
       style="overflow:visible"
       id="marker3024-2-3-5-4-4"
       refX="0"
       refY="0"
       orient="auto"
       inkscape:stockid="Arrow1Lend"
       inkscape:isstock="true">
      <path
         transform="matrix(-0.8,0,0,-0.8,-10,0)"
         style="fill:#000000;fill-opacity:1;fill-rule:evenodd;stroke:#000000;stroke-width:1pt;stroke-opacity:1"
         d="M 0,0 5,-5 -12.5,0 5,5 Z"
         id="path3022-5-2-9-7-1" />
    </marker>
    <marker
       style="overflow:visible"
       id="marker3024-2-3-5-7-0-0"
       refX="0"
       refY="0"
       orient="auto"
       inkscape:stockid="Arrow1Lend"
       inkscape:isstock="true">
      <path
         transform="matrix(-0.8,0,0,-0.8,-10,0)"
         style="fill:#000000;fill-opacity:1;fill-rule:evenodd;stroke:#000000;stroke-width:1pt;stroke-opacity:1"
         d="M 0,0 5,-5 -12.5,0 5,5 Z"
         id="path3022-5-2-9-4-2-1" />
    </marker>
    <marker
       style="overflow:visible"
       id="marker3024-2-2-8-9"
       refX="0"
       refY="0"
       orient="auto"
       inkscape:stockid="Arrow1Lend"
       inkscape:isstock="true">
      <path
         transform="matrix(-0.8,0,0,-0.8,-10,0)"
         style="fill:#000000;fill-opacity:1;fill-rule:evenodd;stroke:#000000;stroke-width:1pt;stroke-opacity:1"
         d="M 0,0 5,-5 -12.5,0 5,5 Z"
         id="path3022-5-3-6-9" />
    </marker>
    <marker
       style="overflow:visible"
       id="marker3024-2-2-3-3"
       refX="0"
       refY="0"
       orient="auto"
       inkscape:stockid="Arrow1Lend"
       inkscape:isstock="true">
      <path
         transform="matrix(-0.8,0,0,-0.8,-10,0)"
         style="fill:#000000;fill-opacity:1;fill-rule:evenodd;stroke:#000000;stroke-width:1pt;stroke-opacity:1"
         d="M 0,0 5,-5 -12.5,0 5,5 Z"
         id="path3022-5-3-9-1" />
    </marker>
    <marker
       style="overflow:visible"
       id="marker3024-2-5-3"
       refX="0"
       refY="0"
       orient="auto"
       inkscape:stockid="Arrow1Lend"
       inkscape:isstock="true">
      <path
         transform="matrix(-0.8,0,0,-0.8,-10,0)"
         style="fill:#cb3c33;fill-opacity:1;fill-rule:evenodd;stroke:#cb3c33;stroke-width:1pt;stroke-opacity:1"
         d="M 0,0 5,-5 -12.5,0 5,5 Z"
         id="path3022-5-6-5" />
    </marker>
    <marker
       style="overflow:visible"
       id="marker3024-2-2-4"
       refX="0"
       refY="0"
       orient="auto"
       inkscape:stockid="Arrow1Lend"
       inkscape:isstock="true">
      <path
         transform="matrix(-0.8,0,0,-0.8,-10,0)"
         style="fill:#4063d8;fill-opacity:1;fill-rule:evenodd;stroke:#4063d8;stroke-width:1pt;stroke-opacity:1"
         d="M 0,0 5,-5 -12.5,0 5,5 Z"
         id="path3022-5-3-3" />
    </marker>
    <marker
       style="overflow:visible"
       id="marker3024-29-1-4"
       refX="0"
       refY="0"
       orient="auto"
       inkscape:stockid="Arrow1Lend"
       inkscape:isstock="true"
       inkscape:collect="always">
      <path
         transform="matrix(-0.8,0,0,-0.8,-10,0)"
         style="fill:#389826;fill-opacity:1;fill-rule:evenodd;stroke:#389826;stroke-width:1pt;stroke-opacity:1"
         d="M 0,0 5,-5 -12.5,0 5,5 Z"
         id="path3022-1-8-9" />
    </marker>
    <marker
       style="overflow:visible"
       id="marker3024-2-2-4-0"
       refX="0"
       refY="0"
       orient="auto"
       inkscape:stockid="Arrow1Lend"
       inkscape:isstock="true">
      <path
         transform="matrix(-0.8,0,0,-0.8,-10,0)"
         style="fill:#4063d8;fill-opacity:1;fill-rule:evenodd;stroke:#4063d8;stroke-width:1pt;stroke-opacity:1"
         d="M 0,0 5,-5 -12.5,0 5,5 Z"
         id="path3022-5-3-3-2" />
    </marker>
    <marker
       style="overflow:visible"
       id="marker3024-2-2-4-0-4"
       refX="0"
       refY="0"
       orient="auto"
       inkscape:stockid="Arrow1Lend"
       inkscape:isstock="true">
      <path
         transform="matrix(-0.8,0,0,-0.8,-10,0)"
         style="fill:#4063d8;fill-opacity:1;fill-rule:evenodd;stroke:#4063d8;stroke-width:1pt;stroke-opacity:1"
         d="M 0,0 5,-5 -12.5,0 5,5 Z"
         id="path3022-5-3-3-2-3" />
    </marker>
    <marker
       style="overflow:visible"
       id="marker3024-29-1-4-9"
       refX="0"
       refY="0"
       orient="auto"
       inkscape:stockid="Arrow1Lend"
       inkscape:isstock="true"
       inkscape:collect="always">
      <path
         transform="matrix(-0.8,0,0,-0.8,-10,0)"
         style="fill:#389826;fill-opacity:1;fill-rule:evenodd;stroke:#389826;stroke-width:1pt;stroke-opacity:1"
         d="M 0,0 5,-5 -12.5,0 5,5 Z"
         id="path3022-1-8-9-6" />
    </marker>
  </defs>
  <sodipodi:namedview
     id="base"
     pagecolor="#ffffff"
     bordercolor="#666666"
     borderopacity="1.0"
     inkscape:pageopacity="0.0"
     inkscape:pageshadow="2"
     inkscape:zoom="4.0000002"
     inkscape:cx="169.67384"
     inkscape:cy="81.275009"
     inkscape:document-units="mm"
     inkscape:current-layer="layer1"
     inkscape:document-rotation="0"
     showgrid="false"
     inkscape:window-width="1920"
     inkscape:window-height="1001"
     inkscape:window-x="2391"
     inkscape:window-y="81"
     inkscape:window-maximized="1"
     inkscape:pagecheckerboard="true"
     fit-margin-top="0"
     fit-margin-left="0"
     fit-margin-right="0"
     fit-margin-bottom="0">
    <inkscape:grid
       type="xygrid"
       id="grid2304"
       originx="-83.845874"
       originy="-108.54624" />
  </sodipodi:namedview>
  <metadata
     id="metadata1738">
    <rdf:RDF>
      <cc:Work
         rdf:about="">
        <dc:format>image/svg+xml</dc:format>
        <dc:type
           rdf:resource="http://purl.org/dc/dcmitype/StillImage" />
        <dc:title></dc:title>
      </cc:Work>
    </rdf:RDF>
  </metadata>
  <g
     inkscape:label="Layer 1"
     inkscape:groupmode="layer"
     id="layer1"
     transform="translate(-83.845874,-108.54623)">
    <text
       xml:space="preserve"
       id="text2862"
       style="font-size:10.5833px;line-height:1.25;font-family:'Fira Sans';-inkscape-font-specification:'Fira Sans';letter-spacing:0px;word-spacing:0px;white-space:pre;shape-inside:url(#rect2864);"
       transform="matrix(1.3063364,0,0,1.2559303,-21.713089,-40.404235)" />
    <ellipse
       style="fill:#cb3c33;fill-opacity:1;stroke:#cb3c33;stroke-width:0.187289;stroke-miterlimit:4;stroke-dasharray:none;stroke-dashoffset:0;stroke-opacity:1"
       id="path2927"
       cx="88.286942"
       cy="109.55927"
       rx="0.94893223"
       ry="0.92121994" />
    <ellipse
       style="fill:#cb3c33;fill-opacity:1;stroke:#cb3c33;stroke-width:0.187289;stroke-miterlimit:4;stroke-dasharray:none;stroke-dashoffset:0;stroke-opacity:1"
       id="path2927-1-1"
       cx="88.309875"
       cy="125.52937"
       rx="0.94893223"
       ry="0.92121994" />
    <ellipse
       style="fill:#cb3c33;fill-opacity:1;stroke:#cb3c33;stroke-width:0.187289;stroke-miterlimit:4;stroke-dasharray:none;stroke-dashoffset:0;stroke-opacity:1"
       id="path2927-1-0"
       cx="88.384392"
       cy="133.59311"
       rx="0.94893223"
       ry="0.92121994" />
    <path
       style="fill:none;fill-opacity:1;stroke:#cb3c33;stroke-width:0.159598;stroke-linecap:butt;stroke-linejoin:miter;stroke-miterlimit:4;stroke-dasharray:none;stroke-opacity:1;marker-end:url(#marker3024)"
       d="m 88.286145,110.37792 v 5.80995"
       id="path3014" />
    <path
       style="fill:none;stroke:#cb3c33;stroke-width:0.159598;stroke-linecap:butt;stroke-linejoin:miter;stroke-miterlimit:4;stroke-dasharray:none;stroke-opacity:1;marker-end:url(#marker3024-2)"
       d="m 88.244026,118.41595 v 5.80995"
       id="path3014-9" />
    <path
       style="fill:none;stroke:#cb3c33;stroke-width:0.159598;stroke-linecap:butt;stroke-linejoin:miter;stroke-miterlimit:4;stroke-dasharray:none;stroke-opacity:1;marker-end:url(#marker3024-2-5)"
       d="m 88.311454,126.50733 v 5.80995"
       id="path3014-9-2" />
    <ellipse
       style="fill:#9558b2;fill-opacity:1;stroke:#9558b2;stroke-width:0.187289;stroke-miterlimit:4;stroke-dasharray:none;stroke-dashoffset:0;stroke-opacity:1"
       id="path2927-4"
       cx="-116.31435"
       cy="98.14695"
       rx="0.92122525"
       ry="0.94892704"
       transform="matrix(0.01351839,-0.99990862,0.99991884,0.01274049,0,0)" />
    <path
       style="fill:none;stroke:#9558b2;stroke-width:0.159598;stroke-linecap:butt;stroke-linejoin:miter;stroke-miterlimit:4;stroke-dasharray:none;stroke-opacity:1;marker-end:url(#marker3024-29)"
       d="m 97.475389,117.52265 5.984211,0.0761"
       id="path3014-92" />
    <path
       style="fill:none;stroke:#9558b2;stroke-width:0.160111;stroke-linecap:butt;stroke-linejoin:miter;stroke-miterlimit:4;stroke-dasharray:none;stroke-opacity:1;marker-end:url(#marker3024-2-2)"
       d="m 105.57573,117.62834 5.9842,0.0761"
       id="path3014-9-7" />
    <path
       style="fill:none;stroke:#9558b2;stroke-width:0.159598;stroke-linecap:butt;stroke-linejoin:miter;stroke-miterlimit:4;stroke-dasharray:none;stroke-opacity:1;marker-end:url(#marker3024-9)"
       d="m 89.236516,117.46604 5.984419,0.0574"
       id="path3014-2" />
    <ellipse
       style="fill:#4063d8;fill-opacity:1;stroke:#4063d8;stroke-width:0.187289;stroke-miterlimit:4;stroke-dasharray:none;stroke-dashoffset:0;stroke-opacity:1"
       id="path2927-1-5-3-0"
       cx="117.08826"
       cy="125.04867"
       rx="0.94893223"
       ry="0.92121994" />
    <path
       style="fill:none;stroke:#389826;stroke-width:0.159598;stroke-linecap:butt;stroke-linejoin:miter;stroke-miterlimit:4;stroke-dasharray:none;stroke-opacity:1;marker-end:url(#marker3024-29-1)"
       d="m 104.79563,118.4405 -0.0594,5.80966"
       id="path3014-92-7" />
    <ellipse
       style="fill:#389826;fill-opacity:1;stroke:#389826;stroke-width:0.187289;stroke-miterlimit:4;stroke-dasharray:none;stroke-dashoffset:0;stroke-opacity:1"
       id="path2927-1-3-1"
       cx="-124.20036"
       cy="106.46223"
       rx="0.92122525"
       ry="0.94892704"
       transform="matrix(0.01351839,-0.99990862,0.99991884,0.01274049,0,0)" />
    <path
       style="fill:none;stroke:#cb3c33;stroke-width:0.159598;stroke-linecap:butt;stroke-linejoin:miter;stroke-miterlimit:4;stroke-dasharray:none;stroke-opacity:1;marker-end:url(#marker3024-2-5-3)"
       d="m 88.374702,134.5398 v 5.80994"
       id="path3014-9-2-3" />
    <ellipse
       style="fill:#cb3c33;fill-opacity:1;stroke:#cb3c33;stroke-width:0.187289;stroke-miterlimit:4;stroke-dasharray:none;stroke-dashoffset:0;stroke-opacity:1"
       id="path2927-1"
       cx="88.272797"
       cy="117.47839"
       rx="0.94893223"
       ry="0.92121994" />
    <ellipse
       style="fill:#9558b2;fill-opacity:1;stroke:#9558b2;stroke-width:0.187289;stroke-miterlimit:4;stroke-dasharray:none;stroke-dashoffset:0;stroke-opacity:1"
       id="path2927-1-3"
       cx="-116.31767"
       cy="106.38003"
       rx="0.92122525"
       ry="0.94892704"
       transform="matrix(0.01351839,-0.99990862,0.99991884,0.01274049,0,0)" />
    <path
       style="fill:none;stroke:#4063d8;stroke-width:0.159603;stroke-linecap:butt;stroke-linejoin:miter;stroke-miterlimit:4;stroke-dasharray:none;stroke-opacity:1;marker-end:url(#marker3024-2-2-4)"
       d="m 113.59842,118.49322 3.21147,5.27594"
       id="path3014-9-7-8" />
    <ellipse
       style="fill:#9558b2;fill-opacity:1;stroke:#9558b2;stroke-width:0.187289;stroke-miterlimit:4;stroke-dasharray:none;stroke-dashoffset:0;stroke-opacity:1"
       id="path2927-1-3-5"
       cx="-116.34399"
       cy="114.49085"
       rx="0.92122525"
       ry="0.94892704"
       transform="matrix(0.01351839,-0.99990862,0.99991884,0.01274049,0,0)" />
    <path
       style="fill:none;stroke:#389826;stroke-width:0.159598;stroke-linecap:butt;stroke-linejoin:miter;stroke-miterlimit:4;stroke-dasharray:none;stroke-opacity:1;marker-end:url(#marker3024-29-1-4)"
       d="m 104.83124,126.32459 -0.0594,5.80966"
       id="path3014-92-7-6" />
    <ellipse
       style="fill:#389826;fill-opacity:1;stroke:#389826;stroke-width:0.187289;stroke-miterlimit:4;stroke-dasharray:none;stroke-dashoffset:0;stroke-opacity:1"
       id="path2927-1-3-1-8"
       cx="-132.06462"
       cy="106.5479"
       rx="0.92122525"
       ry="0.94892704"
       transform="matrix(0.01351839,-0.99990862,0.99991884,0.01274049,0,0)" />
    <path
       style="fill:none;stroke:#4063d8;stroke-width:0.160111;stroke-linecap:butt;stroke-linejoin:miter;stroke-miterlimit:4;stroke-dasharray:none;stroke-opacity:1;marker-end:url(#marker3024-2-2-4-0)"
       d="m 117.08793,125.88603 -0.10464,5.7529"
       id="path3014-9-7-8-6" />
    <ellipse
       style="fill:#4063d8;fill-opacity:1;stroke:#4063d8;stroke-width:0.187289;stroke-miterlimit:4;stroke-dasharray:none;stroke-dashoffset:0;stroke-opacity:1"
       id="path2927-1-5-3-0-6"
       cx="116.98202"
       cy="132.88034"
       rx="0.94893223"
       ry="0.92121994" />
    <path
       style="fill:none;stroke:#4063d8;stroke-width:0.164826;stroke-linecap:butt;stroke-linejoin:miter;stroke-miterlimit:4;stroke-dasharray:none;stroke-opacity:1;marker-end:url(#marker3024-2-2-4-0-4)"
       d="m 116.9953,133.64721 -0.10237,6.2317"
       id="path3014-9-7-8-6-1" />
    <text
       xml:space="preserve"
       style="font-size:10.5833px;line-height:1.25;font-family:'Fira Sans';-inkscape-font-specification:'Fira Sans';letter-spacing:0px;word-spacing:0px;stroke-width:0.264583"
       x="82.787544"
       y="150.03651"
       id="text5301"><tspan
         sodipodi:role="line"
         id="tspan5299"
         x="82.787544"
         y="150.03651"
         style="stroke-width:0.264583">Escher.jl</tspan></text>
    <path
       style="fill:none;stroke:#389826;stroke-width:0.159598;stroke-linecap:butt;stroke-linejoin:miter;stroke-miterlimit:4;stroke-dasharray:none;stroke-opacity:1;marker-end:url(#marker3024-29-1-4-9)"
       d="m 104.76673,134.34258 -0.0594,5.80966"
       id="path3014-92-7-6-9" />
  </g>
</svg>
