<?xml version="1.0" encoding="UTF-8" standalone="no"?>
<svg
   xmlns:dc="http://purl.org/dc/elements/1.1/"
   xmlns:cc="http://creativecommons.org/ns#"
   xmlns:rdf="http://www.w3.org/1999/02/22-rdf-syntax-ns#"
   xmlns:svg="http://www.w3.org/2000/svg"
   xmlns="http://www.w3.org/2000/svg"
   xmlns:sodipodi="http://sodipodi.sourceforge.net/DTD/sodipodi-0.dtd"
   xmlns:inkscape="http://www.inkscape.org/namespaces/inkscape"
   width="38.364376mm"
   height="43.733944mm"
   viewBox="0 0 38.364377 43.733944"
   version="1.1"
   id="svg1741"
   inkscape:version="1.0.2-2 (e86c870879, 2021-01-15)"
   sodipodi:docname="logo.svg">
  <defs
     id="defs1735">
    <marker
       style="overflow:visible"
       id="marker6807"
       refX="0"
       refY="0"
       orient="auto"
       inkscape:stockid="Arrow1Lend"
       inkscape:isstock="true">
      <path
         transform="matrix(-0.8,0,0,-0.8,-10,0)"
         style="fill:#ff0000;fill-opacity:1;fill-rule:evenodd;stroke:#ff0000;stroke-width:1pt;stroke-opacity:1"
         d="M 0,0 5,-5 -12.5,0 5,5 Z"
         id="path6805" />
    </marker>
    <marker
       style="overflow:visible"
       id="marker3617"
       refX="0"
       refY="0"
       orient="auto"
       inkscape:stockid="Arrow1Lend"
       inkscape:isstock="true">
      <path
         transform="matrix(-0.8,0,0,-0.8,-10,0)"
         style="fill:#ff0000;fill-opacity:1;fill-rule:evenodd;stroke:#ff0000;stroke-width:1pt;stroke-opacity:1"
         d="M 0,0 5,-5 -12.5,0 5,5 Z"
         id="path3615" />
    </marker>
    <marker
       style="overflow:visible"
       id="marker3024"
       refX="0"
       refY="0"
       orient="auto"
       inkscape:stockid="Arrow1Lend"
       inkscape:isstock="true"
       inkscape:collect="always">
      <path
         transform="matrix(-0.8,0,0,-0.8,-10,0)"
         style="fill:#cb3c33;fill-opacity:1;fill-rule:evenodd;stroke:#cb3c33;stroke-width:1pt;stroke-opacity:1"
         d="M 0,0 5,-5 -12.5,0 5,5 Z"
         id="path3022" />
    </marker>
    <rect
       x="48.947918"
       y="125.67708"
       width="1.3229167"
       height="14.552083"
       id="rect2864" />
    <marker
       style="overflow:visible"
       id="Arrow1Lstart"
       refX="0"
       refY="0"
       orient="auto"
       inkscape:stockid="Arrow1Lstart"
       inkscape:isstock="true">
      <path
         transform="matrix(0.8,0,0,0.8,10,0)"
         style="fill:#000000;fill-opacity:1;fill-rule:evenodd;stroke:#000000;stroke-width:1pt;stroke-opacity:1"
         d="M 0,0 5,-5 -12.5,0 5,5 Z"
         id="path918" />
    </marker>
    <marker
       style="overflow:visible"
       id="Arrow1Lend-9"
       refX="0"
       refY="0"
       orient="auto"
       inkscape:stockid="Arrow1Lend"
       inkscape:isstock="true">
      <path
         transform="matrix(-0.8,0,0,-0.8,-10,0)"
         style="fill:#000000;fill-opacity:1;fill-rule:evenodd;stroke:#000000;stroke-width:1pt;stroke-opacity:1"
         d="M 0,0 5,-5 -12.5,0 5,5 Z"
         id="path921-9" />
    </marker>
    <marker
       style="overflow:visible"
       id="Arrow1Lend-9-0"
       refX="0"
       refY="0"
       orient="auto"
       inkscape:stockid="Arrow1Lend"
       inkscape:isstock="true">
      <path
         transform="matrix(-0.8,0,0,-0.8,-10,0)"
         style="fill:#000000;fill-opacity:1;fill-rule:evenodd;stroke:#000000;stroke-width:1pt;stroke-opacity:1"
         d="M 0,0 5,-5 -12.5,0 5,5 Z"
         id="path921-9-8" />
    </marker>
    <marker
       style="overflow:visible"
       id="Arrow1Lend-4"
       refX="0"
       refY="0"
       orient="auto"
       inkscape:stockid="Arrow1Lend"
       inkscape:isstock="true">
      <path
         transform="matrix(-0.8,0,0,-0.8,-10,0)"
         style="fill:#000000;fill-opacity:1;fill-rule:evenodd;stroke:#000000;stroke-width:1pt;stroke-opacity:1"
         d="M 0,0 5,-5 -12.5,0 5,5 Z"
         id="path921-5" />
    </marker>
    <marker
       style="overflow:visible"
       id="Arrow1Lend-9-4"
       refX="0"
       refY="0"
       orient="auto"
       inkscape:stockid="Arrow1Lend"
       inkscape:isstock="true">
      <path
         transform="matrix(-0.8,0,0,-0.8,-10,0)"
         style="fill:#000000;fill-opacity:1;fill-rule:evenodd;stroke:#000000;stroke-width:1pt;stroke-opacity:1"
         d="M 0,0 5,-5 -12.5,0 5,5 Z"
         id="path921-9-5" />
    </marker>
    <marker
       style="overflow:visible"
       id="Arrow1Lend-9-0-8"
       refX="0"
       refY="0"
       orient="auto"
       inkscape:stockid="Arrow1Lend"
       inkscape:isstock="true">
      <path
         transform="matrix(-0.8,0,0,-0.8,-10,0)"
         style="fill:#000000;fill-opacity:1;fill-rule:evenodd;stroke:#000000;stroke-width:1pt;stroke-opacity:1"
         d="M 0,0 5,-5 -12.5,0 5,5 Z"
         id="path921-9-8-7" />
    </marker>
    <marker
       style="overflow:visible"
       id="Arrow1Lend-2"
       refX="0"
       refY="0"
       orient="auto"
       inkscape:stockid="Arrow1Lend"
       inkscape:isstock="true">
      <path
         transform="matrix(-0.8,0,0,-0.8,-10,0)"
         style="fill:#000000;fill-opacity:1;fill-rule:evenodd;stroke:#000000;stroke-width:1pt;stroke-opacity:1"
         d="M 0,0 5,-5 -12.5,0 5,5 Z"
         id="path921-52" />
    </marker>
    <marker
       style="overflow:visible"
       id="marker3024-2"
       refX="0"
       refY="0"
       orient="auto"
       inkscape:stockid="Arrow1Lend"
       inkscape:isstock="true">
      <path
         transform="matrix(-0.8,0,0,-0.8,-10,0)"
         style="fill:#cb3c33;fill-opacity:1;fill-rule:evenodd;stroke:#cb3c33;stroke-width:1pt;stroke-opacity:1"
         d="M 0,0 5,-5 -12.5,0 5,5 Z"
         id="path3022-5" />
    </marker>
    <marker
       style="overflow:visible"
       id="marker3024-2-5"
       refX="0"
       refY="0"
       orient="auto"
       inkscape:stockid="Arrow1Lend"
       inkscape:isstock="true">
      <path
         transform="matrix(-0.8,0,0,-0.8,-10,0)"
         style="fill:#cb3c33;fill-opacity:1;fill-rule:evenodd;stroke:#cb3c33;stroke-width:1pt;stroke-opacity:1"
         d="M 0,0 5,-5 -12.5,0 5,5 Z"
         id="path3022-5-6" />
    </marker>
    <marker
       style="overflow:visible"
       id="marker3024-2-3"
       refX="0"
       refY="0"
       orient="auto"
       inkscape:stockid="Arrow1Lend"
       inkscape:isstock="true">
      <path
         transform="matrix(-0.8,0,0,-0.8,-10,0)"
         style="fill:#ff0000;fill-opacity:1;fill-rule:evenodd;stroke:#ff0000;stroke-width:1pt;stroke-opacity:1"
         d="M 0,0 5,-5 -12.5,0 5,5 Z"
         id="path3022-5-2" />
    </marker>
    <marker
       style="overflow:visible"
       id="marker3617-7"
       refX="0"
       refY="0"
       orient="auto"
       inkscape:stockid="Arrow1Lend"
       inkscape:isstock="true">
      <path
         transform="matrix(-0.8,0,0,-0.8,-10,0)"
         style="fill:#000000;fill-opacity:1;fill-rule:evenodd;stroke:#000000;stroke-width:1pt;stroke-opacity:1"
         d="M 0,0 5,-5 -12.5,0 5,5 Z"
         id="path3615-7" />
    </marker>
    <marker
       style="overflow:visible"
       id="marker3617-1"
       refX="0"
       refY="0"
       orient="auto"
       inkscape:stockid="Arrow1Lend"
       inkscape:isstock="true">
      <path
         transform="matrix(-0.8,0,0,-0.8,-10,0)"
         style="fill:#000000;fill-opacity:1;fill-rule:evenodd;stroke:#000000;stroke-width:1pt;stroke-opacity:1"
         d="M 0,0 5,-5 -12.5,0 5,5 Z"
         id="path3615-9" />
    </marker>
    <marker
       style="overflow:visible"
       id="marker3617-1-9"
       refX="0"
       refY="0"
       orient="auto"
       inkscape:stockid="Arrow1Lend"
       inkscape:isstock="true">
      <path
         transform="matrix(-0.8,0,0,-0.8,-10,0)"
         style="fill:#000000;fill-opacity:1;fill-rule:evenodd;stroke:#000000;stroke-width:1pt;stroke-opacity:1"
         d="M 0,0 5,-5 -12.5,0 5,5 Z"
         id="path3615-9-9" />
    </marker>
    <marker
       style="overflow:visible"
       id="marker3024-2-3-5"
       refX="0"
       refY="0"
       orient="auto"
       inkscape:stockid="Arrow1Lend"
       inkscape:isstock="true">
      <path
         transform="matrix(-0.8,0,0,-0.8,-10,0)"
         style="fill:#000000;fill-opacity:1;fill-rule:evenodd;stroke:#000000;stroke-width:1pt;stroke-opacity:1"
         d="M 0,0 5,-5 -12.5,0 5,5 Z"
         id="path3022-5-2-9" />
    </marker>
    <marker
       style="overflow:visible"
       id="marker3024-29"
       refX="0"
       refY="0"
       orient="auto"
       inkscape:stockid="Arrow1Lend"
       inkscape:isstock="true"
       inkscape:collect="always">
      <path
         transform="matrix(-0.8,0,0,-0.8,-10,0)"
         style="fill:#9558b2;fill-opacity:1;fill-rule:evenodd;stroke:#9558b2;stroke-width:1pt;stroke-opacity:1"
         d="M 0,0 5,-5 -12.5,0 5,5 Z"
         id="path3022-1" />
    </marker>
    <marker
       style="overflow:visible"
       id="marker3024-2-2"
       refX="0"
       refY="0"
       orient="auto"
       inkscape:stockid="Arrow1Lend"
       inkscape:isstock="true">
      <path
         transform="matrix(-0.8,0,0,-0.8,-10,0)"
         style="fill:#9558b2;fill-opacity:1;fill-rule:evenodd;stroke:#9558b2;stroke-width:1pt;stroke-opacity:1"
         d="M 0,0 5,-5 -12.5,0 5,5 Z"
         id="path3022-5-3" />
    </marker>
    <marker
       style="overflow:visible"
       id="marker3024-9"
       refX="0"
       refY="0"
       orient="auto"
       inkscape:stockid="Arrow1Lend"
       inkscape:isstock="true"
       inkscape:collect="always">
      <path
         transform="matrix(-0.8,0,0,-0.8,-10,0)"
         style="fill:#9558b2;fill-opacity:1;fill-rule:evenodd;stroke:#9558b2;stroke-width:1pt;stroke-opacity:1"
         d="M 0,0 5,-5 -12.5,0 5,5 Z"
         id="path3022-2" />
    </marker>
    <marker
       style="overflow:visible"
       id="marker3024-2-3-5-7"
       refX="0"
       refY="0"
       orient="auto"
       inkscape:stockid="Arrow1Lend"
       inkscape:isstock="true">
      <path
         transform="matrix(-0.8,0,0,-0.8,-10,0)"
         style="fill:#4063d8;fill-opacity:1;fill-rule:evenodd;stroke:#4063d8;stroke-width:1pt;stroke-opacity:1"
         d="M 0,0 5,-5 -12.5,0 5,5 Z"
         id="path3022-5-2-9-4" />
    </marker>
    <marker
       style="overflow:visible"
       id="marker3024-2-3-9"
       refX="0"
       refY="0"
       orient="auto"
       inkscape:stockid="Arrow1Lend"
       inkscape:isstock="true">
      <path
         transform="matrix(-0.8,0,0,-0.8,-10,0)"
         style="fill:#000000;fill-opacity:1;fill-rule:evenodd;stroke:#000000;stroke-width:1pt;stroke-opacity:1"
         d="M 0,0 5,-5 -12.5,0 5,5 Z"
         id="path3022-5-2-0" />
    </marker>
    <marker
       style="overflow:visible"
       id="marker3024-2-3-5-4"
       refX="0"
       refY="0"
       orient="auto"
       inkscape:stockid="Arrow1Lend"
       inkscape:isstock="true">
      <path
         transform="matrix(-0.8,0,0,-0.8,-10,0)"
         style="fill:#000000;fill-opacity:1;fill-rule:evenodd;stroke:#000000;stroke-width:1pt;stroke-opacity:1"
         d="M 0,0 5,-5 -12.5,0 5,5 Z"
         id="path3022-5-2-9-7" />
    </marker>
    <marker
       style="overflow:visible"
       id="marker3024-2-3-5-7-0"
       refX="0"
       refY="0"
       orient="auto"
       inkscape:stockid="Arrow1Lend"
       inkscape:isstock="true">
      <path
         transform="matrix(-0.8,0,0,-0.8,-10,0)"
         style="fill:#000000;fill-opacity:1;fill-rule:evenodd;stroke:#000000;stroke-width:1pt;stroke-opacity:1"
         d="M 0,0 5,-5 -12.5,0 5,5 Z"
         id="path3022-5-2-9-4-2" />
    </marker>
    <marker
       style="overflow:visible"
       id="marker3024-29-1"
       refX="0"
       refY="0"
       orient="auto"
       inkscape:stockid="Arrow1Lend"
       inkscape:isstock="true"
       inkscape:collect="always">
      <path
         transform="matrix(-0.8,0,0,-0.8,-10,0)"
         style="fill:#389826;fill-opacity:1;fill-rule:evenodd;stroke:#389826;stroke-width:1pt;stroke-opacity:1"
         d="M 0,0 5,-5 -12.5,0 5,5 Z"
         id="path3022-1-8" />
    </marker>
    <marker
       style="overflow:visible"
       id="marker3024-2-2-8"
       refX="0"
       refY="0"
       orient="auto"
       inkscape:stockid="Arrow1Lend"
       inkscape:isstock="true">
      <path
         transform="matrix(-0.8,0,0,-0.8,-10,0)"
         style="fill:#000000;fill-opacity:1;fill-rule:evenodd;stroke:#000000;stroke-width:1pt;stroke-opacity:1"
         d="M 0,0 5,-5 -12.5,0 5,5 Z"
         id="path3022-5-3-6" />
    </marker>
    <marker
       style="overflow:visible"
       id="marker3024-2-2-3"
       refX="0"
       refY="0"
       orient="auto"
       inkscape:stockid="Arrow1Lend"
       inkscape:isstock="true">
      <path
         transform="matrix(-0.8,0,0,-0.8,-10,0)"
         style="fill:#000000;fill-opacity:1;fill-rule:evenodd;stroke:#000000;stroke-width:1pt;stroke-opacity:1"
         d="M 0,0 5,-5 -12.5,0 5,5 Z"
         id="path3022-5-3-9" />
    </marker>
    <marker
       style="overflow:visible"
       id="Arrow1Lend-9-2"
       refX="0"
       refY="0"
       orient="auto"
       inkscape:stockid="Arrow1Lend"
       inkscape:isstock="true">
      <path
         transform="matrix(-0.8,0,0,-0.8,-10,0)"
         style="fill:#000000;fill-opacity:1;fill-rule:evenodd;stroke:#000000;stroke-width:1pt;stroke-opacity:1"
         d="M 0,0 5,-5 -12.5,0 5,5 Z"
         id="path921-9-9" />
    </marker>
    <marker
       style="overflow:visible"
       id="Arrow1Lend-9-0-7"
       refX="0"
       refY="0"
       orient="auto"
       inkscape:stockid="Arrow1Lend"
       inkscape:isstock="true">
      <path
         transform="matrix(-0.8,0,0,-0.8,-10,0)"
         style="fill:#000000;fill-opacity:1;fill-rule:evenodd;stroke:#000000;stroke-width:1pt;stroke-opacity:1"
         d="M 0,0 5,-5 -12.5,0 5,5 Z"
         id="path921-9-8-3" />
    </marker>
    <marker
       style="overflow:visible"
       id="Arrow1Lend-4-4"
       refX="0"
       refY="0"
       orient="auto"
       inkscape:stockid="Arrow1Lend"
       inkscape:isstock="true">
      <path
         transform="matrix(-0.8,0,0,-0.8,-10,0)"
         style="fill:#000000;fill-opacity:1;fill-rule:evenodd;stroke:#000000;stroke-width:1pt;stroke-opacity:1"
         d="M 0,0 5,-5 -12.5,0 5,5 Z"
         id="path921-5-6" />
    </marker>
    <marker
       style="overflow:visible"
       id="Arrow1Lend-9-4-7"
       refX="0"
       refY="0"
       orient="auto"
       inkscape:stockid="Arrow1Lend"
       inkscape:isstock="true">
      <path
         transform="matrix(-0.8,0,0,-0.8,-10,0)"
         style="fill:#000000;fill-opacity:1;fill-rule:evenodd;stroke:#000000;stroke-width:1pt;stroke-opacity:1"
         d="M 0,0 5,-5 -12.5,0 5,5 Z"
         id="path921-9-5-7" />
    </marker>
    <marker
       style="overflow:visible"
       id="Arrow1Lend-9-0-8-8"
       refX="0"
       refY="0"
       orient="auto"
       inkscape:stockid="Arrow1Lend"
       inkscape:isstock="true">
      <path
         transform="matrix(-0.8,0,0,-0.8,-10,0)"
         style="fill:#000000;fill-opacity:1;fill-rule:evenodd;stroke:#000000;stroke-width:1pt;stroke-opacity:1"
         d="M 0,0 5,-5 -12.5,0 5,5 Z"
         id="path921-9-8-7-8" />
    </marker>
    <marker
       style="overflow:visible"
       id="marker3024-2-25"
       refX="0"
       refY="0"
       orient="auto"
       inkscape:stockid="Arrow1Lend"
       inkscape:isstock="true">
      <path
         transform="matrix(-0.8,0,0,-0.8,-10,0)"
         style="fill:#000000;fill-opacity:1;fill-rule:evenodd;stroke:#000000;stroke-width:1pt;stroke-opacity:1"
         d="M 0,0 5,-5 -12.5,0 5,5 Z"
         id="path3022-5-7" />
    </marker>
    <marker
       style="overflow:visible"
       id="marker3024-2-5-6"
       refX="0"
       refY="0"
       orient="auto"
       inkscape:stockid="Arrow1Lend"
       inkscape:isstock="true">
      <path
         transform="matrix(-0.8,0,0,-0.8,-10,0)"
         style="fill:#000000;fill-opacity:1;fill-rule:evenodd;stroke:#000000;stroke-width:1pt;stroke-opacity:1"
         d="M 0,0 5,-5 -12.5,0 5,5 Z"
         id="path3022-5-6-9" />
    </marker>
    <marker
       style="overflow:visible"
       id="marker3024-2-3-8"
       refX="0"
       refY="0"
       orient="auto"
       inkscape:stockid="Arrow1Lend"
       inkscape:isstock="true">
      <path
         transform="matrix(-0.8,0,0,-0.8,-10,0)"
         style="fill:#000000;fill-opacity:1;fill-rule:evenodd;stroke:#000000;stroke-width:1pt;stroke-opacity:1"
         d="M 0,0 5,-5 -12.5,0 5,5 Z"
         id="path3022-5-2-1" />
    </marker>
    <marker
       style="overflow:visible"
       id="marker3024-2-3-5-3"
       refX="0"
       refY="0"
       orient="auto"
       inkscape:stockid="Arrow1Lend"
       inkscape:isstock="true">
      <path
         transform="matrix(-0.8,0,0,-0.8,-10,0)"
         style="fill:#000000;fill-opacity:1;fill-rule:evenodd;stroke:#000000;stroke-width:1pt;stroke-opacity:1"
         d="M 0,0 5,-5 -12.5,0 5,5 Z"
         id="path3022-5-2-9-6" />
    </marker>
    <marker
       style="overflow:visible"
       id="marker3024-2-2-2"
       refX="0"
       refY="0"
       orient="auto"
       inkscape:stockid="Arrow1Lend"
       inkscape:isstock="true">
      <path
         transform="matrix(-0.8,0,0,-0.8,-10,0)"
         style="fill:#000000;fill-opacity:1;fill-rule:evenodd;stroke:#000000;stroke-width:1pt;stroke-opacity:1"
         d="M 0,0 5,-5 -12.5,0 5,5 Z"
         id="path3022-5-3-2" />
    </marker>
    <marker
       style="overflow:visible"
       id="marker3024-2-3-5-7-04"
       refX="0"
       refY="0"
       orient="auto"
       inkscape:stockid="Arrow1Lend"
       inkscape:isstock="true">
      <path
         transform="matrix(-0.8,0,0,-0.8,-10,0)"
         style="fill:#000000;fill-opacity:1;fill-rule:evenodd;stroke:#000000;stroke-width:1pt;stroke-opacity:1"
         d="M 0,0 5,-5 -12.5,0 5,5 Z"
         id="path3022-5-2-9-4-5" />
    </marker>
    <marker
       style="overflow:visible"
       id="marker3024-2-3-9-7"
       refX="0"
       refY="0"
       orient="auto"
       inkscape:stockid="Arrow1Lend"
       inkscape:isstock="true">
      <path
         transform="matrix(-0.8,0,0,-0.8,-10,0)"
         style="fill:#000000;fill-opacity:1;fill-rule:evenodd;stroke:#000000;stroke-width:1pt;stroke-opacity:1"
         d="M 0,0 5,-5 -12.5,0 5,5 Z"
         id="path3022-5-2-0-5" />
    </marker>
    <marker
       style="overflow:visible"
       id="marker3024-2-3-5-4-4"
       refX="0"
       refY="0"
       orient="auto"
       inkscape:stockid="Arrow1Lend"
       inkscape:isstock="true">
      <path
         transform="matrix(-0.8,0,0,-0.8,-10,0)"
         style="fill:#000000;fill-opacity:1;fill-rule:evenodd;stroke:#000000;stroke-width:1pt;stroke-opacity:1"
         d="M 0,0 5,-5 -12.5,0 5,5 Z"
         id="path3022-5-2-9-7-1" />
    </marker>
    <marker
       style="overflow:visible"
       id="marker3024-2-3-5-7-0-0"
       refX="0"
       refY="0"
       orient="auto"
       inkscape:stockid="Arrow1Lend"
       inkscape:isstock="true">
      <path
         transform="matrix(-0.8,0,0,-0.8,-10,0)"
         style="fill:#000000;fill-opacity:1;fill-rule:evenodd;stroke:#000000;stroke-width:1pt;stroke-opacity:1"
         d="M 0,0 5,-5 -12.5,0 5,5 Z"
         id="path3022-5-2-9-4-2-1" />
    </marker>
    <marker
       style="overflow:visible"
       id="marker3024-2-2-8-9"
       refX="0"
       refY="0"
       orient="auto"
       inkscape:stockid="Arrow1Lend"
       inkscape:isstock="true">
      <path
         transform="matrix(-0.8,0,0,-0.8,-10,0)"
         style="fill:#000000;fill-opacity:1;fill-rule:evenodd;stroke:#000000;stroke-width:1pt;stroke-opacity:1"
         d="M 0,0 5,-5 -12.5,0 5,5 Z"
         id="path3022-5-3-6-9" />
    </marker>
    <marker
       style="overflow:visible"
       id="marker3024-2-2-3-3"
       refX="0"
       refY="0"
       orient="auto"
       inkscape:stockid="Arrow1Lend"
       inkscape:isstock="true">
      <path
         transform="matrix(-0.8,0,0,-0.8,-10,0)"
         style="fill:#000000;fill-opacity:1;fill-rule:evenodd;stroke:#000000;stroke-width:1pt;stroke-opacity:1"
         d="M 0,0 5,-5 -12.5,0 5,5 Z"
         id="path3022-5-3-9-1" />
    </marker>
    <marker
       style="overflow:visible"
       id="marker3024-2-5-3"
       refX="0"
       refY="0"
       orient="auto"
       inkscape:stockid="Arrow1Lend"
       inkscape:isstock="true">
      <path
         transform="matrix(-0.8,0,0,-0.8,-10,0)"
         style="fill:#cb3c33;fill-opacity:1;fill-rule:evenodd;stroke:#cb3c33;stroke-width:1pt;stroke-opacity:1"
         d="M 0,0 5,-5 -12.5,0 5,5 Z"
         id="path3022-5-6-5" />
    </marker>
    <marker
       style="overflow:visible"
       id="marker3024-2-2-4"
       refX="0"
       refY="0"
       orient="auto"
       inkscape:stockid="Arrow1Lend"
       inkscape:isstock="true">
      <path
         transform="matrix(-0.8,0,0,-0.8,-10,0)"
         style="fill:#4063d8;fill-opacity:1;fill-rule:evenodd;stroke:#4063d8;stroke-width:1pt;stroke-opacity:1"
         d="M 0,0 5,-5 -12.5,0 5,5 Z"
         id="path3022-5-3-3" />
    </marker>
    <marker
       style="overflow:visible"
       id="marker3024-29-1-4"
       refX="0"
       refY="0"
       orient="auto"
       inkscape:stockid="Arrow1Lend"
       inkscape:isstock="true"
       inkscape:collect="always">
      <path
         transform="matrix(-0.8,0,0,-0.8,-10,0)"
         style="fill:#389826;fill-opacity:1;fill-rule:evenodd;stroke:#389826;stroke-width:1pt;stroke-opacity:1"
         d="M 0,0 5,-5 -12.5,0 5,5 Z"
         id="path3022-1-8-9" />
    </marker>
    <marker
       style="overflow:visible"
       id="marker3024-2-2-4-0"
       refX="0"
       refY="0"
       orient="auto"
       inkscape:stockid="Arrow1Lend"
       inkscape:isstock="true">
      <path
         transform="matrix(-0.8,0,0,-0.8,-10,0)"
         style="fill:#4063d8;fill-opacity:1;fill-rule:evenodd;stroke:#4063d8;stroke-width:1pt;stroke-opacity:1"
         d="M 0,0 5,-5 -12.5,0 5,5 Z"
         id="path3022-5-3-3-2" />
    </marker>
    <marker
       style="overflow:visible"
       id="marker3024-2-2-4-0-4"
       refX="0"
       refY="0"
       orient="auto"
       inkscape:stockid="Arrow1Lend"
       inkscape:isstock="true">
      <path
         transform="matrix(-0.8,0,0,-0.8,-10,0)"
         style="fill:#4063d8;fill-opacity:1;fill-rule:evenodd;stroke:#4063d8;stroke-width:1pt;stroke-opacity:1"
         d="M 0,0 5,-5 -12.5,0 5,5 Z"
         id="path3022-5-3-3-2-3" />
    </marker>
  </defs>
  <sodipodi:namedview
     id="base"
     pagecolor="#ffffff"
     bordercolor="#666666"
     borderopacity="1.0"
     inkscape:pageopacity="0.0"
     inkscape:pageshadow="2"
     inkscape:zoom="2.0000001"
     inkscape:cx="-11.67858"
     inkscape:cy="91.265263"
     inkscape:document-units="mm"
     inkscape:current-layer="layer1"
     inkscape:document-rotation="0"
     showgrid="false"
     inkscape:window-width="1920"
     inkscape:window-height="1001"
     inkscape:window-x="2391"
     inkscape:window-y="81"
     inkscape:window-maximized="1"
     inkscape:pagecheckerboard="true"
     fit-margin-top="0"
     fit-margin-left="0"
     fit-margin-right="0"
     fit-margin-bottom="0">
    <inkscape:grid
       type="xygrid"
       id="grid2304"
       originx="-83.845874"
       originy="-108.54624" />
  </sodipodi:namedview>
  <metadata
     id="metadata1738">
    <rdf:RDF>
      <cc:Work
         rdf:about="">
        <dc:format>image/svg+xml</dc:format>
        <dc:type
           rdf:resource="http://purl.org/dc/dcmitype/StillImage" />
        <dc:title></dc:title>
      </cc:Work>
    </rdf:RDF>
  </metadata>
  <g
     inkscape:label="Layer 1"
     inkscape:groupmode="layer"
     id="layer1"
     transform="translate(-83.845874,-108.54623)">
    <g
       id="g5081"
       transform="matrix(1.3063364,0,0,1.2559303,-21.713089,-40.404235)">
      <text
         xml:space="preserve"
         id="text2862"
         style="font-size:10.5833px;line-height:1.25;font-family:'Fira Sans';-inkscape-font-specification:'Fira Sans';letter-spacing:0px;word-spacing:0px;white-space:pre;shape-inside:url(#rect2864);" />
      <ellipse
         style="fill:#cb3c33;fill-opacity:1;stroke:#cb3c33;stroke-width:0.146218;stroke-miterlimit:4;stroke-dasharray:none;stroke-dashoffset:0;stroke-opacity:1"
         id="path2927"
         cx="84.204979"
         cy="119.40432"
         rx="0.72640723"
         ry="0.73349607" />
      <ellipse
         style="fill:#cb3c33;fill-opacity:1;stroke:#cb3c33;stroke-width:0.146218;stroke-miterlimit:4;stroke-dasharray:none;stroke-dashoffset:0;stroke-opacity:1"
         id="path2927-1-1"
         cx="84.222534"
         cy="132.12007"
         rx="0.72640723"
         ry="0.73349607" />
      <ellipse
         style="fill:#cb3c33;fill-opacity:1;stroke:#cb3c33;stroke-width:0.146218;stroke-miterlimit:4;stroke-dasharray:none;stroke-dashoffset:0;stroke-opacity:1"
         id="path2927-1-0"
         cx="84.279579"
         cy="138.5406"
         rx="0.72640723"
         ry="0.73349607" />
      <path
         style="fill:none;fill-opacity:1;stroke:#cb3c33;stroke-width:0.1246;stroke-linecap:butt;stroke-linejoin:miter;stroke-miterlimit:4;stroke-dasharray:none;stroke-opacity:1;marker-end:url(#marker3024)"
         d="m 84.20437,120.05615 v 4.62601"
         id="path3014" />
      <path
         style="fill:none;stroke:#cb3c33;stroke-width:0.1246;stroke-linecap:butt;stroke-linejoin:miter;stroke-miterlimit:4;stroke-dasharray:none;stroke-opacity:1;marker-end:url(#marker3024-2)"
         d="m 84.172128,126.45621 v 4.62601"
         id="path3014-9" />
      <path
         style="fill:none;stroke:#cb3c33;stroke-width:0.1246;stroke-linecap:butt;stroke-linejoin:miter;stroke-miterlimit:4;stroke-dasharray:none;stroke-opacity:1;marker-end:url(#marker3024-2-5)"
         d="m 84.223744,132.89875 v 4.62601"
         id="path3014-9-2" />
      <ellipse
         style="fill:#9558b2;fill-opacity:1;stroke:#9558b2;stroke-width:0.146218;stroke-miterlimit:4;stroke-dasharray:none;stroke-dashoffset:0;stroke-opacity:1"
         id="path2927-4"
         cx="-124.55914"
         cy="92.170029"
         rx="0.73349524"
         ry="0.72640812"
         transform="matrix(0.01299686,-0.99991554,0.99991219,0.01325174,0,0)" />
      <path
         style="fill:none;stroke:#9558b2;stroke-width:0.1246;stroke-linecap:butt;stroke-linejoin:miter;stroke-miterlimit:4;stroke-dasharray:none;stroke-opacity:1;marker-end:url(#marker3024-29)"
         d="m 91.238733,125.74494 4.58091,0.0606"
         id="path3014-92" />
      <path
         style="fill:none;stroke:#9558b2;stroke-width:0.125;stroke-linecap:butt;stroke-linejoin:miter;stroke-miterlimit:4;stroke-dasharray:none;stroke-opacity:1;marker-end:url(#marker3024-2-2)"
         d="m 97.43954,125.8291 4.5809,0.0606"
         id="path3014-9-7" />
      <path
         style="fill:none;stroke:#9558b2;stroke-width:0.1246;stroke-linecap:butt;stroke-linejoin:miter;stroke-miterlimit:4;stroke-dasharray:none;stroke-opacity:1;marker-end:url(#marker3024-9)"
         d="m 84.931879,125.69987 4.58107,0.0457"
         id="path3014-2" />
      <ellipse
         style="fill:#4063d8;fill-opacity:1;stroke:#4063d8;stroke-width:0.146218;stroke-miterlimit:4;stroke-dasharray:none;stroke-dashoffset:0;stroke-opacity:1"
         id="path2927-1-5-3-0"
         cx="106.4314"
         cy="131.32768"
         rx="0.72640723"
         ry="0.73349607" />
      <path
         style="fill:none;stroke:#389826;stroke-width:0.1246;stroke-linecap:butt;stroke-linejoin:miter;stroke-miterlimit:4;stroke-dasharray:none;stroke-opacity:1;marker-end:url(#marker3024-29-1)"
         d="m 96.842378,126.47576 -0.0455,4.62578"
         id="path3014-92-7" />
      <ellipse
         style="fill:#389826;fill-opacity:1;stroke:#389826;stroke-width:0.146218;stroke-miterlimit:4;stroke-dasharray:none;stroke-dashoffset:0;stroke-opacity:1"
         id="path2927-1-3-1"
         cx="-130.83812"
         cy="98.535408"
         rx="0.73349524"
         ry="0.72640812"
         transform="matrix(0.01299686,-0.99991554,0.99991219,0.01325174,0,0)" />
      <path
         style="fill:none;stroke:#cb3c33;stroke-width:0.1246;stroke-linecap:butt;stroke-linejoin:miter;stroke-miterlimit:4;stroke-dasharray:none;stroke-opacity:1;marker-end:url(#marker3024-2-5-3)"
         d="m 84.272161,139.29438 v 4.62601"
         id="path3014-9-2-3" />
      <ellipse
         style="fill:#cb3c33;fill-opacity:1;stroke:#cb3c33;stroke-width:0.146218;stroke-miterlimit:4;stroke-dasharray:none;stroke-dashoffset:0;stroke-opacity:1"
         id="path2927-1"
         cx="84.194153"
         cy="125.7097"
         rx="0.72640723"
         ry="0.73349607" />
      <ellipse
         style="fill:#9558b2;fill-opacity:1;stroke:#9558b2;stroke-width:0.146218;stroke-miterlimit:4;stroke-dasharray:none;stroke-dashoffset:0;stroke-opacity:1"
         id="path2927-1-3"
         cx="-124.56179"
         cy="98.472488"
         rx="0.73349524"
         ry="0.72640812"
         transform="matrix(0.01299686,-0.99991554,0.99991219,0.01325174,0,0)" />
      <path
         style="fill:none;stroke:#4063d8;stroke-width:0.125;stroke-linecap:butt;stroke-linejoin:miter;stroke-miterlimit:4;stroke-dasharray:none;stroke-opacity:1;marker-end:url(#marker3024-2-2-4)"
         d="m 103.53184,126.50875 2.41778,3.89135"
         id="path3014-9-7-8" />
      <ellipse
         style="fill:#9558b2;fill-opacity:1;stroke:#9558b2;stroke-width:0.146218;stroke-miterlimit:4;stroke-dasharray:none;stroke-dashoffset:0;stroke-opacity:1"
         id="path2927-1-3-5"
         cx="-124.58274"
         cy="104.68136"
         rx="0.73349524"
         ry="0.72640812"
         transform="matrix(0.01299686,-0.99991554,0.99991219,0.01325174,0,0)" />
      <path
         style="fill:none;stroke:#389826;stroke-width:0.1246;stroke-linecap:butt;stroke-linejoin:miter;stroke-miterlimit:4;stroke-dasharray:none;stroke-opacity:1;marker-end:url(#marker3024-29-1-4)"
         d="m 96.869632,132.75325 -0.0455,4.62578"
         id="path3014-92-7-6" />
      <ellipse
         style="fill:#389826;fill-opacity:1;stroke:#389826;stroke-width:0.146218;stroke-miterlimit:4;stroke-dasharray:none;stroke-dashoffset:0;stroke-opacity:1"
         id="path2927-1-3-1-8"
         cx="-137.09978"
         cy="98.60099"
         rx="0.73349524"
         ry="0.72640812"
         transform="matrix(0.01299686,-0.99991554,0.99991219,0.01325174,0,0)" />
      <path
         style="fill:none;stroke:#4063d8;stroke-width:0.125;stroke-linecap:butt;stroke-linejoin:miter;stroke-miterlimit:4;stroke-dasharray:none;stroke-opacity:1;marker-end:url(#marker3024-2-2-4-0)"
         d="m 106.39534,132.01302 -0.0801,4.58059"
         id="path3014-9-7-8-6" />
      <ellipse
         style="fill:#4063d8;fill-opacity:1;stroke:#4063d8;stroke-width:0.146218;stroke-miterlimit:4;stroke-dasharray:none;stroke-dashoffset:0;stroke-opacity:1"
         id="path2927-1-5-3-0-6"
         cx="106.27847"
         cy="137.60068"
         rx="0.72640723"
         ry="0.73349607" />
      <path
         style="fill:none;stroke:#4063d8;stroke-width:0.125;stroke-linecap:butt;stroke-linejoin:miter;stroke-miterlimit:4;stroke-dasharray:none;stroke-opacity:1;marker-end:url(#marker3024-2-2-4-0-4)"
         d="m 106.2538,138.39351 -0.0801,4.58059"
         id="path3014-9-7-8-6-1" />
    </g>
    <text
       xml:space="preserve"
       style="font-size:10.5833px;line-height:1.25;font-family:'Fira Sans';-inkscape-font-specification:'Fira Sans';letter-spacing:0px;word-spacing:0px;stroke-width:0.264583"
       x="82.787544"
       y="150.03651"
       id="text5301"><tspan
         sodipodi:role="line"
         id="tspan5299"
         x="82.787544"
         y="150.03651"
         style="stroke-width:0.264583">Escher.jl</tspan></text>
  </g>
</svg>
